<svg style="fill-rule:nonzero;clip-rule:evenodd;stroke-linecap:round;stroke-linejoin:round;" xmlns:xlink="http://www.w3.org/1999/xlink" xmlns="http://www.w3.org/2000/svg" xml:space="preserve" width="100%" xmlns:vectornator="http://vectornator.io" version="1.1" viewBox="0 0 1024 1024">
<defs/>
<g id="Untitled">
<path d="M791.035+221.808L883.555+221.808L883.555+298.588L822.515+298.588L619.431+501.671L565.301+448.309L791.035+221.808M499.654+452.148C509.636+452.148+518.849+455.987+526.911+463.665L603.691+540.445C610.602+548.123+614.825+556.953+614.825+567.318L610.985+582.674L457.425+889.795C450.131+903.231+436.695+910.142+422.874+910.142C409.438+910.142+395.617+903.231+388.707+889.795L317.301+747.752L175.258+678.65C161.054+670.971+154.144+657.535+154.144+644.098C154.144+630.662+161.054+617.225+175.258+609.547L482.379+455.987C487.753+452.148+493.512+452.148+499.654+452.148M397.921+560.408L371.047+586.513L480.459+695.925L506.564+669.052L397.921+560.408M343.791+614.538L316.534+641.795L425.178+750.439L452.434+723.182L343.791+614.538Z" opacity="1" fill="#000000"/>
</g>
<g id="Untitled_2">
<path d="M314.87+136.913C314.87+123.073+331.098+115.98+340.872+125.558C370.961+155.062+388.449+219.842+367.765+268.989L366.536+271.725L366.72+271.773C376.325+273.864+385.207+265.01+402.111+237.598L404.262+234.075C406.79+229.911+411.07+227.192+415.837+226.72C420.604+226.248+425.314+228.078+428.574+231.669C449.074+254.237+468.544+300.506+468.544+330.277C468.544+397.353+413.36+451.454+345.605+451.454C277.85+451.454+222.666+397.353+222.666+330.262C222.666+294.844+238.371+256.093+263.113+231.165L272.41+221.902C276.114+218.191+279.08+215.139+281.907+212.088C303.883+188.309+314.87+166.102+314.87+136.913" opacity="1" fill="#000000"/>
</g>
</svg>

